<?xml version="1.0" encoding="utf-8"?>
<!-- Generator: Adobe Illustrator 24.0.2, SVG Export Plug-In . SVG Version: 6.00 Build 0)  -->
<svg version="1.1" id="Layer_1" xmlns="http://www.w3.org/2000/svg" xmlns:xlink="http://www.w3.org/1999/xlink" x="0px" y="0px"
	 viewBox="0 0 239.9 99.2" style="enable-background:new 0 0 239.9 99.2;" xml:space="preserve">
<style type="text/css">
	.st0{fill:#002337;}
	.st1{fill:#702567;}
</style>
<g>
	<path class="st0" d="M199.2,99.2c2.3,0,3.8-1.2,5.2-4.4l6.5-16.1h-2.5l-5,13l-5.7-13h-2.6l7.1,15.5c-0.9,2.2-1.8,2.9-3.2,2.9
		c-1,0-1.7-0.2-2.4-0.6l-0.8,1.8C197,98.9,197.9,99.2,199.2,99.2 M190.5,94.6c1.1,0,2-0.2,2.8-0.7v-2c-0.8,0.4-1.5,0.5-2.3,0.5
		c-1.6,0-2.6-0.7-2.6-2.6v-9.1h4.9v-2h-4.9v-4.7h-2.3v4.7h-2.2v2h2.2v9.4C186.1,93.4,188,94.6,190.5,94.6 M178.2,94.3h2.3V78.8h-2.3
		V94.3z M178,75.4h2.6v-2.6H178V75.4z M168.7,94.6c3.1,0,5.5-1.7,5.5-4.7v-0.1c0-2.8-2.6-3.7-5-4.4c-2.1-0.6-4-1.2-4-2.7v-0.1
		c0-1.3,1.2-2.3,3-2.3c1.5,0,3.2,0.6,4.6,1.5l1.1-1.7c-1.6-1.1-3.7-1.7-5.6-1.7c-3.1,0-5.3,1.8-5.3,4.4V83c0,2.9,2.7,3.7,5.1,4.4
		c2,0.6,3.9,1.2,3.9,2.7v0.1c0,1.5-1.4,2.5-3.2,2.5c-1.8,0-3.7-0.7-5.4-2l-1.2,1.7C164.1,93.7,166.5,94.6,168.7,94.6 M152,94.3h2.3
		v-6.2c0-4.7,2.8-7.1,6.2-7.1h0.2v-2.5c-2.9-0.1-5.2,1.7-6.3,4.3v-4.1H152V94.3z M136.2,85.6c0.3-3,2.4-5.2,5.1-5.2
		c3.1,0,4.7,2.4,5,5.2H136.2z M136.2,87.5h12.3c0-0.4,0-0.6,0-0.8c0-4.6-2.6-8.2-7.2-8.2c-4.3,0-7.5,3.6-7.5,8.1
		c0,4.8,3.5,8.1,7.8,8.1c2.9,0,4.8-1.2,6.4-2.9l-1.4-1.3c-1.3,1.3-2.8,2.2-4.9,2.2C139,92.7,136.6,90.8,136.2,87.5 M123.9,94.4h2
		l6.8-15.7h-2.5l-5.3,12.9l-5.2-12.9h-2.6L123.9,94.4z M111.6,94.3h2.3V78.8h-2.3V94.3z M111.5,75.4h2.6v-2.6h-2.6V75.4z M93.5,94.3
		h2.3v-8.9c0-2.9,2-4.9,4.7-4.9c2.7,0,4.3,1.8,4.3,4.7v9.1h2.3v-9.6c0-3.7-2.2-6.2-6-6.2c-2.7,0-4.3,1.4-5.3,3v-2.7h-2.3V94.3z
		 M80.1,94.6c5.3,0,8.8-3.2,8.8-9.3V73.3h-2.4v12.2c0,4.6-2.5,6.9-6.3,6.9c-4,0-6.4-2.6-6.4-7.1V73.3h-2.4v12.2
		C71.3,91.5,74.9,94.6,80.1,94.6"/>
	<path class="st0" d="M211.7,64.3v-1.9h-0.1c-1,0-1.9-0.2-2.6-0.5c-0.7-0.3-1.1-1.2-1.1-2.5v-9.6c0-1.3,0.2-2.5,0.5-3.6
		c0.3-1.1,0.9-2,1.6-2.7c0.8-0.7,1.8-1,3.1-1c1.8,0,3,0.5,3.7,1.6c0.7,1.1,1.1,2.6,1.1,4.6v15.7h7.9v-1.9h-0.1c-1,0-1.9-0.2-2.5-0.6
		c-0.7-0.4-1-1.3-1-2.7v-10c0-1.2,0.2-2.3,0.5-3.4c0.3-1,0.8-1.9,1.6-2.5c0.7-0.6,1.7-0.9,3-0.9c1.8,0,3,0.5,3.7,1.6
		c0.7,1.1,1.1,2.6,1.1,4.6v15.7h7.9v-1.9h-0.1c-1,0-1.9-0.2-2.5-0.6c-0.7-0.4-1-1.3-1-2.7V48.3c0-3.1-0.7-5.4-2-6.8
		c-1.3-1.4-3.1-2.1-5.4-2.1c-1.4,0-2.7,0.3-3.9,0.8c-1.2,0.5-2.3,1.6-3.2,3.3h-0.4c-0.6-1.5-1.5-2.6-2.6-3.2c-1.2-0.6-2.5-0.9-4-0.9
		c-1.4,0-2.7,0.3-3.8,0.8c-1.1,0.5-2.2,1.6-3.1,3.3h-0.2l-0.6-3.7h-7.2v1.9h0.1c1,0,1.8,0.2,2.5,0.5c0.7,0.4,1,1.2,1,2.6v14.2
		c0,1.4-0.3,2.3-1,2.7c-0.7,0.4-1.5,0.6-2.5,0.6h-0.6v1.9H211.7z M180.1,57.7c0-1.8,0.5-3.1,1.5-4.1c1-0.9,2.8-1.5,5.4-1.6l2.9-0.1
		v3.7c0,1.9-0.5,3.5-1.6,4.6c-1.1,1.1-2.6,1.7-4.4,1.7C181.3,61.9,180.1,60.5,180.1,57.7 M185.8,64.2c0.8-0.4,1.5-0.9,2.1-1.5
		c0.6-0.7,1.2-1.4,1.9-2.3h0.4l0.7,3.9h6.1v-1.9H197c-1,0-1.8-0.2-2.2-0.7c-0.4-0.5-0.6-1.3-0.6-2.6V47.3c0-2.9-0.7-4.9-2.1-6.1
		c-1.4-1.2-3.5-1.8-6.3-1.8c-1.5,0-2.9,0.1-4.1,0.4c-1.2,0.3-2.2,0.8-3,1.4c-0.7,0.7-1.1,1.5-1.1,2.5c0,1,0.3,1.8,1,2.2
		c0.7,0.4,1.6,0.7,2.9,0.7c0-0.9,0.1-1.8,0.3-2.6c0.2-0.8,0.6-1.4,1.2-1.8c0.6-0.4,1.5-0.6,2.6-0.6c1.2,0,2.2,0.2,2.8,0.7
		c0.6,0.5,1,1.1,1.2,2c0.2,0.8,0.3,1.8,0.3,2.9V50l-3.8,0.1c-3.5,0.1-6.1,0.8-7.8,1.9c-1.7,1.2-2.6,2.9-2.6,5.4c0,2.5,0.7,4.3,2,5.5
		c1.3,1.2,3,1.8,5.1,1.8C184,64.7,185,64.5,185.8,64.2 M159.4,64.3v-1.9h-0.1c-1,0-1.9-0.2-2.6-0.5c-0.7-0.3-1.1-1.2-1.1-2.5v-9.6
		c0-2.2,0.4-4,1.3-5.4c0.9-1.3,2.3-2,4.2-2c1.9,0,3.1,0.5,3.9,1.6c0.7,1.1,1.1,2.6,1.1,4.6v15.7h7.9v-1.9h-0.1c-1,0-1.9-0.2-2.5-0.6
		c-0.7-0.4-1-1.3-1-2.7V48.3c0-3.1-0.7-5.4-2.1-6.8c-1.4-1.4-3.4-2.1-6-2.1c-3.1,0-5.3,1.4-6.7,4.1h-0.2c0.1-0.8,0.1-1.5,0.1-2.1
		c0-0.6,0-1.2,0-1.7v-10h-8.4v1.9h0.4c1,0,1.9,0.2,2.6,0.5c0.7,0.4,1.1,1.2,1.1,2.6v24.4c0,1.4-0.4,2.3-1.1,2.7
		c-0.7,0.4-1.6,0.6-2.6,0.6h-0.4v1.9H159.4z M140.4,64.3v-1.9h-1.3c-1,0-1.9-0.2-2.6-0.5c-0.7-0.3-1.1-1.2-1.1-2.5v-7.1
		c0-0.9,0.1-1.9,0.2-3c0.2-1.1,0.4-2.2,0.7-3.2c0.3-1,0.8-1.9,1.4-2.6c0.6-0.7,1.3-1,2.1-1c0.9,0,1.5,0.3,1.9,0.8
		c0.4,0.6,0.5,1.5,0.5,2.7c1.5,0,2.6-0.3,3.3-0.9c0.7-0.6,1-1.4,1-2.3c0-1.1-0.4-1.9-1.2-2.5c-0.8-0.6-2-0.9-3.7-0.9
		c-1.3,0-2.4,0.2-3.1,0.7c-0.8,0.5-1.4,1.1-1.8,1.8c-0.5,0.7-0.9,1.6-1.3,2.5h-0.2l-0.9-4.5h-7v1.9h0.1c1,0,1.9,0.2,2.6,0.5
		c0.7,0.4,1.1,1.2,1.1,2.6v14.2c0,1.4-0.4,2.3-1.1,2.7c-0.7,0.4-1.6,0.6-2.6,0.6h-0.1v1.9H140.4z M114.3,63.9
		c1.2-0.5,2.3-1.6,3.3-3.3h0.2l0.6,3.7h7.2v-1.9h-0.1c-1,0-1.9-0.2-2.6-0.5c-0.7-0.3-1.1-1.2-1.1-2.5V39.9h-8.2v1.9h0.1
		c1,0,1.9,0.2,2.6,0.6c0.7,0.4,1.1,1.3,1.1,2.7v9.4c0,2.2-0.5,4-1.4,5.4c-0.9,1.4-2.4,2-4.4,2c-1.9,0-3.1-0.5-3.8-1.6
		c-0.7-1.1-1-2.6-1-4.6V39.9h-8.2v1.9h0.1c1,0,1.9,0.2,2.6,0.5c0.7,0.4,1.1,1.2,1.1,2.6v10.9c0,3.1,0.7,5.4,2,6.8s3.2,2.1,5.6,2.1
		C111.7,64.7,113.1,64.5,114.3,63.9 M76.2,34h4c3.6,0,6.3,1.2,8.1,3.6C90.1,40,91,43.5,91,48s-0.9,7.9-2.7,10.4
		c-1.8,2.4-4.5,3.6-8.1,3.6h-4V34z M81.2,64.3c3.3,0,6-0.7,8.2-2c2.2-1.3,3.9-3.2,5-5.6c1.1-2.4,1.7-5.3,1.7-8.7
		c0-5.2-1.3-9.2-3.9-12c-2.6-2.8-6.3-4.2-10.9-4.2H67.3v1.9h0.6c1,0,1.9,0.2,2.6,0.5c0.7,0.4,1.1,1.2,1.1,2.6v22.3
		c0,1.4-0.4,2.3-1.1,2.7c-0.7,0.4-1.6,0.6-2.6,0.6h-0.6v1.9H81.2z"/>
</g>
<g>
	<path class="st1" d="M62.2,28.5c0.6-5.5,0-16.6-1.1-22.5c-0.3-1.4-1.2-3.1-3.5-3.7C51.5,0.9,43.4,0.1,34.8,0
		c-0.7,6.2-1.4,14.7-1.4,24.4l0,3.7l0,0.2l0.9,0.1c0.4,0,0.6,0.3,0.7,0.7c0.1,0.4,0.1,1,0.1,1S51.6,29.9,62.2,28.5z"/>
	<path class="st1" d="M29.1,36.2l-0.9-0.1c-0.4,0-0.6-0.3-0.7-0.7c0-0.4-0.1-1-0.1-1l0,0c-7.3,0-15.5,0-26.2,1.5
		c1.4,8.2,10.8,26.8,26,34.8c0.7-6.2,1.9-21.2,1.9-30.8l0-3.5L29.1,36.2L29.1,36.2z"/>
	<path class="st1" d="M35.2,34.4c7.3,0,15.6,0,26.3,1.5c-1.4,8.2-10.8,26.8-26,34.8c-0.7-6.2-2-21.2-2-30.8l0.1-3.5l0-0.1l0.9-0.1
		c0.4,0,0.6-0.3,0.7-0.7C35.1,35,35.2,34.4,35.2,34.4L35.2,34.4z"/>
	<g>
		<path class="st1" d="M15.1,17.8c0,0.1,0,0.2,0,0.3c0.1,0,0.2-0.1,0.3-0.1c0.1-0.1,0.1-0.1,0.2-0.2C15.6,17.7,15.2,17.7,15.1,17.8z
			"/>
		<path class="st1" d="M15,14.1L0.2,28.5C10.7,29.9,20,30,27.3,30h0.1c0,0,0.1-0.5,0.1-1c0.1-0.4,0.2-0.7,0.7-0.7l0.9-0.1l0,0
			L15,14.1z M13.7,18.3c-0.1,0.2-0.1,0.5,0.3,0.5c0.3,0,0.7-0.2,0.8-0.3l0,0.1c-0.1,0-0.7,0.5-1.1,0.5c-0.3,0-0.4-0.2-0.4-0.3
			C13.3,18.6,13.5,18.6,13.7,18.3z M18.5,21.8c0,0.3-0.4,0.4-0.5,0.5c0,0.1-0.1,0.1-0.1,0.2c0-0.2,0-0.3,0-0.4
			c0-0.1-0.1-0.2-0.2-0.2c-0.2,0-0.8,0.5-0.4,1.3c0-0.3,0.1-0.5,0.1-0.5c0-0.1,0.1-0.2,0.1-0.2c0.1,0.2,0.1,0.3,0.1,0.4
			c0,0.3-0.2,0.4-0.1,0.7c0,0.1,0,0.1,0.1,0.2c0-0.1,0-0.2,0-0.3c0-0.1,0.2-0.2,0.2-0.3c0-0.1,0-0.1,0-0.2C18,23,18,23.1,18,23.3
			c0,0.3-0.1,0.4-0.1,0.5c0,0.1-0.1,0.1-0.1,0.3c-0.1,0.6-0.3,0.8-0.7,0.8c-0.2,0-0.4,0-0.5-0.1c0,0.7-0.8,0.7-0.8,1.1
			c0,0.1,0.1,0.3,0.2,0.4c0.1,0.1,0.4,0.2,0.5,0.4c-0.2,0-0.4,0.1-0.5,0.2c0.3,0.1,0.3,0.3,0.3,0.5c-0.3-0.1-0.4-0.1-0.5,0
			c-0.1,0.1,0,0.2-0.1,0.4c0-0.1-0.1-0.2-0.2-0.2c-0.1,0-0.4,0.2-0.4,0.3c0,0.2-0.1,0.3-0.3,0.3c-0.1,0.1-0.1,0.2-0.1,0.3
			c-0.1-0.1-0.1-0.2-0.1-0.4c-0.1-0.1-0.1-0.2-0.1-0.3l0,0c-0.1,0.1-0.1,0.2-0.3,0.1c-0.1,0-0.2,0.1-0.2,0.3c0-0.3,0-0.4,0.1-0.4
			c0-0.1,0-0.2,0.1-0.3c0,0,0,0,0-0.1c-0.1,0-0.2,0-0.2-0.1c-0.1,0-0.2,0.1-0.3,0.2c0-0.2,0.1-0.3,0.2-0.4c0.1-0.2,0.3-0.3,0.5-0.1
			c0.1,0.1,0.2,0.1,0.4,0.1c0.2,0,0.3-0.1,0.4-0.2c0-0.1,0-0.1,0.1-0.1c0-0.1,0.1-0.2-0.1-0.4c-0.1-0.2-0.5-0.5-0.5-0.8
			c0-0.4,0.2-0.6,0.4-0.8c-0.1,0,0,0-0.1,0c-0.3,0-0.3-0.2-0.5-0.2c-0.2,0-0.3,0.2-0.3,0.4c0,0.2,0,0.2,0.1,0.3
			c0.1,0.1,0.1,0.2,0.1,0.4c-0.2-0.1-0.4-0.2-0.5-0.1c-0.1,0.2-0.1,0.3-0.2,0.4c0-0.2-0.3-0.4-0.6-0.1c0,0.1-0.1,0.2-0.3,0.2
			c-0.1,0-0.1,0-0.2-0.1c-0.1,0.1-0.2,0.2-0.2,0.3c0-0.2,0-0.3,0.1-0.4c0-0.1,0-0.2,0.1-0.3c0,0,0,0,0-0.1c-0.1,0.1-0.3,0.1-0.4,0
			c-0.1,0-0.1,0.1-0.2,0.2c0-0.2,0.1-0.3,0.2-0.4c0-0.1,0.2-0.2,0.3-0.2c0,0,0,0,0-0.1c0,0,0,0,0,0c-0.1,0-0.2,0-0.2-0.2
			c-0.1,0-0.2,0-0.3,0.1c0.1-0.2,0.2-0.2,0.3-0.2c0-0.1,0.2-0.1,0.2-0.1c0.1,0,0.2,0.1,0.2,0.1c0.1,0.2,0.4,0.3,0.7,0.3
			c0.1,0,0.3-0.1,0.3-0.3c0-0.2-0.3-0.6-0.3-0.8c0-0.2,0.4-0.6,0.6-0.6c0.8,0,0.9,0.3,1.1,0.3c0.2,0,0.3-0.1,0.3-0.1
			c-0.4-0.4-0.6-0.4-0.9-0.7c-0.2-0.1-0.3-0.3-0.3-0.5c-0.2,0-0.4,0.3-0.5,0.5c0-0.1-0.1-0.1-0.2-0.1c-0.2,0-0.3,0.2-0.4,0.4
			c0-0.2-0.2-0.4-0.4-0.4c-0.1,0-0.3,0.1-0.3,0.1c0,0.1-0.2,0.2-0.4,0.2c-0.1,0.1-0.1,0.1-0.2,0.3c-0.1-0.3,0-0.3,0-0.4
			c0-0.2,0-0.3,0.1-0.3l0,0c-0.1,0-0.3,0-0.3-0.1c-0.1,0-0.2,0-0.3,0.2c0-0.2,0.1-0.3,0.2-0.4c0-0.1,0.2-0.1,0.3-0.1c0,0,0,0,0-0.1
			c-0.1,0-0.1-0.1-0.1-0.3c-0.1-0.1-0.2,0-0.3,0c0.1-0.2,0.3-0.2,0.4-0.1c0.3-0.1,0.3,0,0.4,0.2c0,0.2,0.3,0.2,0.6,0.2
			c0.6,0,1.5-0.5,1.4-1c-0.1,0-0.2,0-0.3,0c-0.3,0-0.7,0.4-1,0.4c0.2-0.2,0.1-0.4,0.1-0.5c-0.2,0-0.3,0.1-0.7,0.1
			c0.1-0.1,0.2-0.3,0.2-0.4c0-0.1,0-0.2-0.3-0.2c0,0-0.1,0-0.2,0c-0.1,0-0.3,0-0.3-0.2c-0.1,0-0.2,0-0.3,0.1c0-0.1,0.3-0.3,0.3-0.3
			c0-0.1,0.1-0.1,0.2-0.1c0-0.1,0,0,0-0.1c-0.1,0-0.3-0.1-0.3-0.3c-0.1-0.1-0.1-0.1-0.3,0c0.2-0.2,0.3-0.1,0.4-0.1
			c0.2-0.1,0.3-0.1,0.4,0c0,0,0,0,0,0c0-0.1,0-0.2,0-0.3c0-0.1-0.1-0.2-0.2-0.2c0.3,0,0.4,0.1,0.4,0.2c0.1,0,0.2,0.1,0.2,0.2
			c0,0.2-0.3,0.4,0.2,0.7c0.2,0.1,0.4,0.2,0.6,0.2c0.2,0.1,0.5,0.2,0.6,0.2c-0.1-0.1,0-0.3-0.2-0.4c0.2,0,0.4,0,0.5,0.1
			c0-0.2,0-0.2-0.1-0.3c0.1,0,0.3,0,0.3,0c0.6,0.1,0.6-0.2,0.7-0.6c-0.2,0-0.5,0.1-0.8,0.3c0-0.1,0-0.2,0-0.3c0-0.2,0.1-0.2,0.2-0.2
			c0,0,0.1,0,0.2,0c0.1,0,0.3-0.1,0.2-0.4c0-0.1-0.1-0.2-0.3-0.2c-0.1,0-0.1,0-0.2,0.1c-0.1,0-0.1,0.1-0.1,0.2c0,0-0.1-0.2-0.1-0.2
			c0,0,0-0.1-0.1-0.1c0,0,0,0,0-0.1c-0.1-0.1,0-0.3,0.2-0.3c0.1,0,0.3-0.1,0.4-0.1c0.2-0.1,0.3-0.1,0.3-0.2c0-0.1,0.1-0.2,0.3-0.2
			c0.1,0,0.3,0,0.4,0c0.3,0,0.6-0.2,0.5-0.5c0.2,0,0.3,0.3,0.2,0.5c0.1,0,0.4-0.1,0.5-0.1c0,0.2-0.2,0.5-0.3,0.5
			c0.1,0,0.4,0,0.5-0.1c0,0.2-0.2,0.5-0.3,0.5c0.3,0.1,0.4,0.2,0.5,0.5c-0.2-0.1-0.3,0-0.5,0c0.3,0.4,0.5,1,0.6,1.2
			c-0.1-0.1-0.3-0.2-0.4-0.2c0.1,0.3-0.1,0.7,0,0.8c-0.1-0.1-0.3-0.1-0.3-0.2c-0.1,0.1-0.2,0.4-0.1,0.7c-0.1-0.1-0.2-0.2-0.3-0.2
			c-0.1,0.2-0.2,0.3-0.2,0.8c0,0.7,0.3,1.3,0.4,1.5c0.2,0.4,0.3,0.7,0.3,0.8c0.1,0.3,0.2,0.4,0.5,0.4c0.2,0,0.4-0.2,0.4-0.5
			c0-0.5-0.6-0.8-0.6-1.6c0-0.5,0.4-0.8,0.4-1.2c0-0.3-0.3-0.1-0.5-0.3c0.3-0.1,0.4-0.4,0.7-0.3c0.2,0,0.3,0.1,0.3,0.2
			c0,0.1-0.1,0.3-0.1,0.4c0.2-0.2,0.3-0.5,0.3-0.7c0-0.2-0.3-0.5-0.2-0.9c0-0.1,0-0.1,0-0.1c0.1,0.5,0.8,0.6,0.8,1.1
			c0,0.5-0.4,0.4-0.6,0.7C18.2,21.4,18.5,21.5,18.5,21.8z"/>
	</g>
	<g>
		<path class="st1" d="M27.8,0C19.1,0.1,11,0.9,5,2.3C2.6,2.8,1.7,4.5,1.4,5.9C0.7,9.9-0.2,17.6,0.1,25.6c1.5-1.4,15-14.6,15-14.6
			l14.1,14.1C29.1,15.4,28.5,6.2,27.8,0z M6.8,4.5C6.7,4.8,6.7,5.1,7.1,5.1c0.3,0,0.7-0.2,0.8-0.3l0,0.1c-0.1,0-0.7,0.5-1.2,0.5
			c-0.3,0-0.4-0.2-0.4-0.3C6.4,4.9,6.6,4.8,6.8,4.5z M11.7,8.1c0,0.3-0.4,0.4-0.5,0.5c0,0.1-0.1,0.1-0.1,0.2c0-0.2,0-0.3,0-0.4
			c0-0.1-0.1-0.2-0.2-0.2c-0.2,0-0.8,0.5-0.4,1.3c0-0.3,0.1-0.5,0.1-0.5c0-0.1,0.1-0.2,0.1-0.2c0.1,0.2,0.1,0.3,0.1,0.4
			c0,0.3-0.2,0.4-0.1,0.7c0,0.1,0,0.1,0.1,0.2c0-0.1,0-0.2,0-0.3c0-0.1,0.2-0.2,0.2-0.3c0-0.1,0-0.1,0-0.2c0.1,0.1,0.2,0.3,0.2,0.5
			c0,0.3-0.1,0.4-0.1,0.5c0,0.1-0.1,0.1-0.1,0.3c-0.1,0.6-0.4,0.8-0.7,0.8c-0.2,0-0.4,0-0.6-0.1c0,0.7-0.8,0.7-0.8,1.2
			c0,0.1,0.1,0.3,0.2,0.4c0.1,0.1,0.4,0.2,0.6,0.4c-0.2,0-0.4,0.1-0.5,0.2c0.3,0.2,0.3,0.3,0.3,0.5c-0.3-0.1-0.4-0.1-0.5,0
			c-0.1,0.1,0,0.2-0.2,0.4c0-0.1-0.1-0.2-0.3-0.2c-0.1,0-0.4,0.2-0.4,0.3c0,0.2-0.1,0.3-0.3,0.3c-0.1,0.1-0.1,0.2-0.1,0.4
			c-0.1-0.1-0.1-0.2-0.1-0.4c-0.1-0.1-0.1-0.2-0.1-0.3l-0.1,0c-0.1,0.1-0.1,0.2-0.3,0.1c-0.1,0-0.2,0.1-0.2,0.3c0-0.3,0-0.4,0.1-0.5
			c0-0.1,0-0.2,0.1-0.3c0,0,0,0,0-0.1c-0.1,0-0.2,0-0.2-0.1c-0.1,0-0.2,0.1-0.3,0.2c0-0.2,0.1-0.3,0.2-0.4c0.1-0.2,0.3-0.3,0.5-0.1
			c0.1,0.1,0.2,0.2,0.4,0.2c0.2,0,0.3-0.1,0.4-0.2c0-0.1,0-0.1,0.1-0.1c0-0.1,0.1-0.2-0.1-0.4c-0.1-0.2-0.5-0.5-0.5-0.8
			c0-0.4,0.2-0.7,0.4-0.8c-0.1,0,0,0-0.1,0c-0.3,0-0.3-0.2-0.6-0.2c-0.2,0-0.3,0.2-0.3,0.4c0,0.2,0,0.2,0.1,0.3
			c0.1,0.2,0.1,0.2,0.1,0.4c-0.2-0.1-0.4-0.2-0.5-0.1c-0.1,0.2-0.1,0.3-0.2,0.4c0-0.2-0.3-0.4-0.6-0.1c0,0.1-0.1,0.2-0.3,0.2
			c-0.1,0-0.1,0-0.2-0.1c-0.1,0.1-0.2,0.2-0.2,0.3c0-0.2,0-0.3,0.1-0.4c0-0.1,0-0.2,0.1-0.3c0,0,0,0,0-0.1c-0.1,0.1-0.3,0.1-0.4,0
			c-0.1,0-0.1,0.1-0.2,0.2c0-0.2,0.1-0.4,0.2-0.4c0-0.1,0.2-0.2,0.4-0.2c0,0,0,0,0-0.1c0,0,0,0,0,0c-0.1,0-0.2,0-0.2-0.2
			c-0.1,0-0.2,0-0.3,0.1c0.1-0.2,0.2-0.2,0.3-0.2C5.1,11,5.3,11,5.3,11c0.1,0,0.2,0.1,0.2,0.1c0.1,0.2,0.4,0.3,0.7,0.3
			c0.1,0,0.3-0.1,0.3-0.3c0-0.2-0.3-0.6-0.3-0.8c0-0.2,0.4-0.6,0.6-0.6c0.8,0,1,0.3,1.1,0.3c0.2,0,0.3-0.1,0.3-0.1
			c-0.4-0.5-0.6-0.4-1-0.7C7.2,9.1,7.1,8.9,7.1,8.7C6.8,8.8,6.6,9.1,6.5,9.3c0-0.1-0.1-0.1-0.2-0.1C6.1,9.1,6,9.3,5.9,9.5
			c0-0.2-0.2-0.4-0.4-0.4c-0.1,0-0.3,0.1-0.3,0.2c0,0.1-0.2,0.2-0.4,0.2C4.7,9.5,4.6,9.5,4.6,9.7c-0.1-0.3,0-0.3,0-0.4
			c0-0.2,0-0.3,0.1-0.3l0-0.1C4.6,9,4.4,9,4.3,8.9c-0.1,0-0.2,0-0.3,0.2c0-0.2,0.1-0.3,0.2-0.4c0-0.1,0.2-0.2,0.3-0.2c0,0,0,0,0-0.1
			c-0.1,0-0.1-0.1-0.1-0.3c-0.1-0.1-0.2,0-0.3,0C4.4,8.1,4.6,8,4.7,8.1C5,8,5,8.1,5.1,8.2c0,0.2,0.3,0.2,0.6,0.2
			c0.6,0,1.5-0.6,1.5-1c-0.1,0-0.2,0-0.3,0c-0.3,0-0.7,0.4-1,0.4C6,7.6,5.9,7.5,6,7.3c-0.2,0-0.3,0.1-0.7,0.1C5.4,7.3,5.5,7.1,5.5,7
			c0-0.1,0-0.2-0.4-0.2c0,0-0.1,0-0.2,0c-0.1,0-0.3,0-0.3-0.2c-0.1,0-0.2,0-0.3,0.1c0-0.1,0.3-0.3,0.3-0.3c0-0.1,0.1-0.1,0.2-0.1
			c0-0.1,0,0,0-0.1C4.7,6.2,4.5,6.2,4.5,6c-0.1-0.1-0.1-0.1-0.3,0c0.2-0.2,0.3-0.2,0.4-0.1c0.2-0.1,0.3-0.1,0.4,0c0,0,0,0,0-0.1
			c0-0.1,0-0.3,0-0.3c0-0.1-0.1-0.2-0.2-0.2c0.3,0,0.4,0.1,0.5,0.2c0.2,0,0.2,0.2,0.2,0.2c0,0.2-0.3,0.4,0.2,0.7
			C6,6.4,6.2,6.5,6.4,6.5C6.6,6.6,6.9,6.7,7,6.7C6.9,6.6,7,6.4,6.8,6.3c0.2,0,0.4,0,0.5,0.1c0-0.2,0-0.2-0.1-0.3c0.1,0,0.3,0,0.4,0
			c0.6,0.1,0.6-0.2,0.7-0.6c-0.2,0-0.5,0.1-0.8,0.3c0-0.1,0-0.2,0-0.3c0-0.2,0.1-0.2,0.2-0.2c0,0,0.1,0,0.2,0c0.1,0,0.3-0.1,0.2-0.4
			c0-0.1-0.1-0.2-0.3-0.2c-0.1,0-0.1,0-0.2,0.1c-0.1,0-0.1,0.1-0.1,0.2c0,0-0.1-0.2-0.1-0.2c0,0,0-0.1-0.1-0.1c0,0,0,0,0-0.1
			c-0.1-0.1,0-0.3,0.2-0.3c0.1,0,0.3-0.1,0.4-0.1C8,4.1,8,4,8.1,3.9c0-0.1,0.1-0.2,0.3-0.2c0.1,0,0.3,0,0.4,0c0.3,0,0.6-0.2,0.5-0.5
			c0.2,0,0.3,0.3,0.2,0.5c0.1,0,0.4-0.1,0.5-0.1c0,0.2-0.2,0.5-0.3,0.5c0.1,0,0.4,0,0.5-0.1c0,0.2-0.2,0.5-0.3,0.5
			c0.3,0.1,0.4,0.2,0.5,0.5c-0.2-0.1-0.3,0-0.5,0c0.4,0.4,0.5,1,0.6,1.2c-0.1-0.1-0.3-0.2-0.4-0.2c0.1,0.3-0.1,0.7,0,0.9
			C9.8,7,9.7,6.9,9.6,6.8C9.6,6.9,9.4,7.2,9.5,7.6C9.4,7.5,9.2,7.4,9.2,7.3C9,7.5,9,7.6,9,8.1c0,0.7,0.3,1.3,0.4,1.6
			c0.2,0.4,0.3,0.7,0.3,0.9C9.8,10.8,10,11,10.2,11c0.2,0,0.4-0.2,0.4-0.5c0-0.5-0.6-0.8-0.6-1.6c0-0.6,0.4-0.8,0.4-1.2
			c0-0.3-0.3-0.1-0.5-0.3C10.3,7.3,10.4,7,10.7,7c0.2,0,0.3,0.1,0.3,0.2c0,0.2-0.1,0.3-0.1,0.4c0.2-0.2,0.3-0.5,0.3-0.7
			c0-0.2-0.3-0.5-0.2-1C11,6,11,6,11,5.9c0.1,0.5,0.8,0.6,0.8,1.2c0,0.5-0.4,0.4-0.7,0.7C11.4,7.7,11.7,7.8,11.7,8.1z M20.6,3.6
			c-0.1,0.3-0.1,0.6,0.3,0.6c0.3,0,0.8-0.2,0.9-0.3l0,0.1c-0.1,0-0.7,0.5-1.2,0.5c-0.3,0-0.4-0.2-0.4-0.3
			C20.2,3.9,20.4,3.8,20.6,3.6z M25.7,7.2c0,0.3-0.4,0.4-0.5,0.6c0,0.1-0.1,0.1-0.1,0.2c-0.1-0.2,0-0.3,0-0.4c0-0.1-0.1-0.2-0.2-0.2
			c-0.2,0-0.8,0.5-0.4,1.4c0-0.3,0.1-0.5,0.1-0.6c0.1-0.1,0.1-0.2,0.1-0.3c0.1,0.2,0.1,0.3,0.1,0.5c0,0.4-0.3,0.4-0.1,0.7
			c0,0.1,0,0.1,0.1,0.2c0-0.1,0-0.2,0-0.3c0-0.1,0.2-0.3,0.2-0.3c0-0.1,0-0.1,0-0.2c0.1,0.1,0.2,0.3,0.2,0.5c0,0.3-0.1,0.4-0.2,0.5
			C25,9.5,25,9.6,25,9.7c-0.1,0.6-0.4,0.9-0.8,0.9c-0.2,0-0.4,0-0.6-0.1c0,0.8-0.9,0.7-0.9,1.2c0,0.1,0.1,0.3,0.2,0.4
			c0.1,0.1,0.4,0.2,0.6,0.4c-0.2,0-0.4,0.1-0.5,0.2c0.3,0.2,0.3,0.3,0.3,0.6c-0.3-0.2-0.5-0.1-0.5,0c-0.1,0.1,0,0.2-0.2,0.4
			c0-0.1-0.1-0.2-0.3-0.2c-0.1,0-0.4,0.2-0.4,0.3c0,0.2-0.1,0.3-0.3,0.3c-0.1,0.2-0.1,0.2-0.1,0.4c-0.1-0.1-0.1-0.2-0.1-0.4
			c-0.1-0.1-0.1-0.2-0.1-0.3l-0.1,0c-0.1,0.1-0.2,0.2-0.3,0.1c-0.1,0-0.2,0.1-0.2,0.3c0-0.3,0.1-0.4,0.1-0.5c0-0.1,0-0.2,0.1-0.3
			c0,0,0,0,0-0.1c-0.1,0-0.2,0-0.2-0.1c-0.1,0-0.2,0.1-0.3,0.2c0-0.2,0.1-0.4,0.2-0.4c0.1-0.2,0.3-0.3,0.5-0.1
			c0.1,0.1,0.3,0.2,0.4,0.2c0.2,0,0.4-0.2,0.4-0.2c0-0.1,0-0.1,0.1-0.1c0-0.1,0.1-0.2-0.1-0.4c-0.1-0.2-0.5-0.6-0.5-0.8
			c0-0.4,0.2-0.7,0.4-0.8c-0.1,0,0,0-0.2,0c-0.3,0-0.3-0.2-0.6-0.2c-0.2,0-0.3,0.2-0.3,0.4c0,0.2,0,0.2,0.1,0.3
			c0.1,0.2,0.1,0.2,0.1,0.4c-0.2-0.1-0.4-0.2-0.6-0.1c-0.1,0.2-0.1,0.3-0.2,0.4c0-0.2-0.4-0.4-0.7-0.2c0,0.1-0.1,0.2-0.3,0.2
			c-0.1,0-0.1,0-0.2-0.1c-0.1,0.1-0.2,0.2-0.2,0.3c0-0.2,0-0.3,0.1-0.4c0-0.1,0-0.3,0.1-0.3c0,0,0,0,0-0.1c-0.1,0.1-0.4,0.1-0.4,0
			c-0.1,0-0.2,0.1-0.2,0.2c0-0.2,0.1-0.4,0.2-0.4c0-0.1,0.2-0.2,0.4-0.2c0,0,0,0,0-0.1c0,0,0,0,0,0c-0.1,0-0.2,0-0.2-0.3
			c-0.1,0-0.2,0-0.3,0.1c0.1-0.2,0.2-0.2,0.4-0.3c0-0.1,0.2-0.1,0.2-0.1c0.1,0,0.2,0.1,0.2,0.1c0.1,0.2,0.4,0.3,0.7,0.3
			c0.1,0,0.3-0.1,0.3-0.3c0-0.2-0.3-0.6-0.3-0.9C20,9.4,20.4,9,20.7,9c0.8,0,1,0.3,1.2,0.3c0.3,0,0.3-0.1,0.3-0.1
			c-0.4-0.5-0.6-0.5-1-0.7C21,8.4,20.9,8.2,20.9,8c-0.2,0.1-0.4,0.4-0.6,0.5c-0.1-0.1-0.1-0.1-0.2-0.1c-0.2,0-0.3,0.2-0.4,0.4
			c-0.1-0.2-0.2-0.4-0.5-0.4c-0.1,0-0.3,0.1-0.4,0.2c0,0.1-0.2,0.2-0.4,0.2c-0.1,0.1-0.2,0.1-0.2,0.3c-0.1-0.3,0-0.4,0-0.4
			c0-0.2,0-0.3,0.1-0.3l0-0.1c-0.1,0-0.3,0-0.3-0.1c-0.1,0-0.2,0-0.3,0.2c0-0.2,0.1-0.3,0.3-0.4c0-0.1,0.2-0.2,0.3-0.2
			c0,0,0,0,0-0.1c-0.1,0-0.1-0.1-0.1-0.3c-0.1-0.1-0.2,0-0.3,0c0.2-0.2,0.3-0.2,0.5-0.2c0.3-0.1,0.4,0,0.4,0.2
			c0,0.2,0.3,0.2,0.6,0.2c0.6,0,1.6-0.6,1.5-1c-0.1,0-0.2,0-0.3,0c-0.3,0-0.7,0.4-1.1,0.4c0.2-0.2,0.1-0.4,0.2-0.5
			c-0.2,0-0.4,0.1-0.7,0.1c0.1-0.1,0.2-0.3,0.2-0.4c0-0.1,0-0.3-0.4-0.3c0,0-0.1,0-0.2,0c-0.1,0-0.3,0-0.3-0.2c-0.1,0-0.2,0-0.3,0.1
			c0-0.1,0.3-0.3,0.4-0.3c0.1-0.1,0.2-0.1,0.2-0.1c0-0.1,0,0,0-0.1c-0.1,0-0.3-0.1-0.3-0.3C18.2,5,18.1,5,17.9,5
			c0.2-0.2,0.3-0.2,0.4-0.1c0.2-0.1,0.3-0.1,0.4,0c0,0,0,0,0.1-0.1c0-0.1,0-0.3,0-0.3c0-0.1-0.1-0.2-0.2-0.2c0.3,0,0.4,0.1,0.5,0.2
			c0.2,0,0.3,0.2,0.3,0.3c0,0.3-0.3,0.4,0.3,0.7c0.2,0.1,0.4,0.2,0.6,0.2c0.2,0.1,0.5,0.2,0.6,0.2c-0.1-0.1-0.1-0.3-0.2-0.4
			c0.2,0,0.4,0,0.5,0.1c0-0.2,0-0.2-0.1-0.3c0.1,0,0.3,0,0.4,0c0.6,0.1,0.6-0.2,0.7-0.6c-0.2,0-0.5,0.1-0.9,0.3c0-0.1,0-0.2,0-0.3
			c0-0.2,0.1-0.2,0.2-0.2c0,0,0.1,0,0.2,0c0.1,0,0.3-0.1,0.2-0.4c0-0.1-0.1-0.2-0.3-0.2c-0.1,0-0.1,0-0.2,0.1
			c-0.1,0-0.1,0.1-0.1,0.2c0,0-0.1-0.2-0.1-0.2c0,0,0-0.1-0.1-0.2c0,0,0,0,0-0.1c-0.1-0.1,0-0.3,0.2-0.3c0.1,0,0.3-0.1,0.4-0.1
			C21.9,3.1,21.9,3,22,2.9c0-0.1,0.1-0.2,0.3-0.2c0.1,0,0.3,0,0.4,0c0.3,0,0.6-0.2,0.5-0.5c0.2,0,0.3,0.4,0.2,0.5
			c0.1,0,0.4-0.1,0.5-0.1c0,0.2-0.2,0.5-0.3,0.6c0.2,0,0.4,0,0.5-0.1c-0.1,0.2-0.2,0.5-0.3,0.6c0.3,0.1,0.4,0.2,0.6,0.6
			c-0.2-0.1-0.3,0-0.5,0c0.4,0.4,0.5,1.1,0.6,1.3c-0.1-0.1-0.3-0.2-0.4-0.2c0.2,0.4-0.1,0.7,0,0.9c-0.1-0.1-0.3-0.2-0.3-0.2
			c-0.1,0.1-0.2,0.4-0.1,0.8c-0.1-0.1-0.3-0.2-0.3-0.2c-0.1,0.2-0.2,0.3-0.2,0.8c0,0.7,0.3,1.4,0.5,1.6c0.2,0.4,0.3,0.7,0.3,0.9
			c0.1,0.3,0.3,0.4,0.5,0.4c0.2,0,0.5-0.2,0.5-0.5C24.6,9.3,24,9,24,8.1c0-0.6,0.4-0.9,0.5-1.2c0-0.3-0.3-0.1-0.5-0.3
			c0.3-0.1,0.5-0.4,0.7-0.4c0.2,0,0.3,0.1,0.3,0.2c0,0.2-0.1,0.3-0.1,0.4c0.2-0.2,0.4-0.5,0.4-0.7c0-0.2-0.3-0.5-0.3-1
			c0-0.1,0-0.1,0-0.1c0.1,0.5,0.9,0.7,0.9,1.2c0,0.5-0.4,0.4-0.7,0.8C25.4,6.9,25.7,6.9,25.7,7.2z"/>
		<path class="st1" d="M8.3,4c0,0.1,0,0.2,0,0.3c0.1,0,0.2-0.1,0.3-0.1C8.7,4.1,8.7,4,8.8,4C8.7,3.9,8.3,3.9,8.3,4z"/>
		<path class="st1" d="M22.2,3c0,0.1,0,0.2,0,0.3c0.1,0,0.2-0.1,0.3-0.1c0.1-0.1,0.1-0.1,0.2-0.2C22.6,3,22.2,3,22.2,3z"/>
	</g>
</g>
</svg>
